<svg width="16" height="16" viewBox="0 0 16 16" fill="none" xmlns="http://www.w3.org/2000/svg">
<circle cx="8" cy="8" r="8" fill="#C4C4C4"/>
<path d="M10.0673 6.0855L8.2006 4.0855C8.14993 4.0315 8.07687 4 8.00007 4C7.92327 4 7.8502 4.0315 7.79953 4.0855L5.93287 6.0855C5.86407 6.1595 5.847 6.264 5.89073 6.3535C5.93393 6.4425 6.02887 6.5 6.1334 6.5H7.20007V9.75C7.20007 9.888 7.31953 10 7.46673 10H8.5334C8.6806 10 8.80007 9.888 8.80007 9.75V6.5H9.86673C9.97127 6.5 10.0662 6.443 10.1094 6.3535C10.1526 6.264 10.1366 6.159 10.0673 6.0855Z" fill="white"/>
<path d="M10.9333 9.5V11H5.06667V9.5H4V11.5C4 11.7765 4.23893 12 4.53333 12H11.4667C11.7616 12 12 11.7765 12 11.5V9.5H10.9333Z" fill="white"/>
</svg>
